<svg version="1.1" xmlns="http://www.w3.org/2000/svg" xmlns:xlink="http://www.w3.org/1999/xlink" x="0px" y="0px" width="512px" height="512px" viewBox="0 0 512 512" style="enable-background:new 0 0 512 512;" xml:space="preserve">
<g id="B_-_173_x2C__handshake_x2C__Agreement_x2C__business_x2C__hands_x2C__partners_x2C__partnership">
<g>
<g id="XMLID_330_">
<g>
<g>
<path style="fill: rgb(255, 96, 10);" d="M397.61,252.12c3.58,3.62,3.58,9.42,0,12.96c-3.57,3.62-9.42,3.62-13,0
						c-3.58-3.54-3.58-9.34,0-12.96C388.19,248.51,394.04,248.51,397.61,252.12z" id="id_101"></path>
</g>
<g>
<path style="fill: rgb(107, 144, 255);" d="M131,247.09c4.39,2.55,5.87,8.22,3.37,12.61c-2.56,4.39-8.15,5.88-12.57,3.33
						c-4.4-2.55-5.88-8.14-3.33-12.54C120.98,246.1,126.63,244.61,131,247.09z" id="id_102"></path>
</g>
<g>
<path style="fill: rgb(252, 5, 5);" d="M365.39,163.14l36.96,64.02l24.631,42.67L377.22,298.52l-49.6-85.859l-0.92-1.6l-13.8-23.97
						l-1.101-1.84h-0.01l-0.78-1.35l49.78-28.76l4.61,7.99L365.39,163.14z M397.61,265.08c3.58-3.54,3.58-9.34,0-12.96
						c-3.57-3.61-9.42-3.61-13,0c-3.58,3.62-3.58,9.42,0,12.96C388.19,268.7,394.04,268.7,397.61,265.08z" id="id_103"></path>
</g>
<g>
<polygon style="fill:#FF703D;" points="416.93,133.39 471.62,228.1 420.08,257.86 402.35,227.16 365.4,163.13 					" id="id_104"></polygon>
</g>
<g>
<polygon style="fill: rgb(0, 128, 255);" points="146.56,163.14 91.9,257.86 40.38,228.1 95.06,133.39 					" id="id_105"></polygon>
</g>
<g>
<path style="fill: rgb(0, 13, 255);" d="M154.38,150.75l49.78,28.69l-3.58,6.23c-0.07,0.06-0.14,0.11-0.2,0.17
						c-0.18,0.15-0.35,0.3-0.52,0.47c-0.16,0.14-0.31,0.3-0.45,0.45c-0.02,0.02-0.04,0.05-0.06,0.07c-0.17,0.18-0.33,0.36-0.47,0.54
						c-0.15,0.18-0.29,0.36-0.41,0.55c-0.01,0.01-0.01,0.02-0.02,0.02c-0.13,0.18-0.25,0.36-0.35,0.54
						c-0.09,0.14-0.17,0.28-0.24,0.42c-0.06,0.1-0.11,0.19-0.15,0.28c-0.01,0.02-0.02,0.04-0.03,0.06c-0.07,0.14-0.14,0.28-0.2,0.43
						c-0.14,0.31-0.26,0.63-0.35,0.95c-0.08,0.24-0.15,0.49-0.2,0.74c-0.03,0.11-0.05,0.22-0.07,0.34
						c-0.04,0.19-0.07,0.37-0.08,0.56l-12.81,22.17l-33.25,57.53l-10.73,18.63l-1.1,1.91l-0.94,1.63l-0.95-0.57l-0.02,0.011
						l-48.79-28.13L154.38,150.75z M134.37,259.7c2.5-4.39,1.02-10.06-3.37-12.61c-4.37-2.48-10.02-0.99-12.53,3.4
						c-2.55,4.4-1.07,9.99,3.33,12.54C126.22,265.58,131.81,264.09,134.37,259.7z" id="id_106"></path>
</g>
<g>
<path style="fill:#FBD5A6;" d="M212.08,345.15l-3.96,6.859l-18.09,10.48c-6.85,3.899-15.67,1.56-19.63-5.311
						c-3.86-6.729-1.66-15.37,4.96-19.41l-14.13,8.15c-6.85,3.96-15.67,1.55-19.6-5.25c-3.89-6.729-1.66-15.37,4.93-19.479
						l-16.82,9.77c-6.77,3.9-15.66,1.56-19.62-5.229c-3.94-6.881-1.61-15.73,5.26-19.631l21.6-12.529l0.97,0.56l0.94-1.63l1.64-0.92
						l11.01,18.63L212.08,345.15z" id="id_107"></path>
</g>
<g>
<path style="fill:#FBD5A6;" d="M244.85,363.98l-22.06,12.75c-6.85,3.89-15.69,1.56-19.63-5.311
						c-3.91-6.729-1.66-15.37,4.96-19.41l3.96-6.859l10.02,5.79l21.11,12.189c0.32,0.21,0.64,0.37,0.97,0.521
						C244.4,363.76,244.62,363.86,244.85,363.98z" id="id_108"></path>
</g>
<g>
<path style="fill: rgb(232, 192, 144);" d="M360.84,270.19l10.79,18.699l-116.36-69.85l-0.25-0.14c-21.04,0.07-39.56-2.06-52.42-14.1
						c-0.24-0.23-0.47-0.46-0.7-0.69c-0.46-0.46-0.89-0.92-1.27-1.39c-0.59-0.7-1.11-1.41-1.58-2.12c-0.01,0-0.01-0.01-0.01-0.02
						c-1.07-1.66-1.78-3.35-2.12-5.01c-0.01,0,0-0.01,0-0.01c-0.22-1.12-0.27-2.23-0.14-3.3c0.01-0.19,0.04-0.37,0.08-0.56
						c0.02-0.11,0.05-0.22,0.07-0.34c0.05-0.25,0.12-0.5,0.2-0.74c0.09-0.32,0.21-0.64,0.35-0.95c0.06-0.14,0.13-0.29,0.2-0.43
						c0.01-0.02,0.02-0.04,0.03-0.06c0.04-0.09,0.09-0.19,0.15-0.28c0.07-0.14,0.15-0.28,0.24-0.42c0.11-0.18,0.23-0.36,0.35-0.54
						c0.01,0,0.01-0.01,0.02-0.02c0.13-0.18,0.27-0.37,0.41-0.55c0.15-0.18,0.31-0.36,0.47-0.54c0.02-0.02,0.04-0.05,0.06-0.07
						c0.15-0.15,0.3-0.3,0.45-0.45c0.17-0.16,0.34-0.32,0.52-0.47c0.06-0.06,0.13-0.11,0.2-0.17c6.12-5.07,19.72-7.27,42.42-2.27
						c19.15,4.26,31.87-22.67,61.36,4.04l7.43-2.19l14.91,25.81l0.92,1.6L360.84,270.19z" id="id_109"></path>
</g>
<g>
<path style="fill:#FBD5A6;" d="M183.97,214.43l12.81-22.17c-0.14,1.07-0.09,2.18,0.14,3.3c0,0-0.01,0.01,0,0.01
						c0.33,1.66,1.04,3.35,2.12,5.01c0,0.01,0,0.02,0.01,0.02c0.46,0.72,0.98,1.42,1.58,2.12c0.38,0.47,0.81,0.93,1.27,1.39
						c0.22,0.23,0.46,0.46,0.7,0.69c12.86,12.04,31.38,14.17,52.42,14.1l116.61,69.99c1.36,2.431,2.08,5.2,2.08,8.021
						c0,2.76-0.69,5.57-2.16,8.13c-4.5,7.79-14.62,10.41-22.359,6.02L330.05,299.94c7.48,4.609,10.04,14.52,5.62,22.17
						c-4.5,7.79-14.57,10.479-22.31,5.949l-16.101-9.279c7.51,4.609,10.04,14.45,5.601,22.18c-4.5,7.79-14.521,10.48-22.311,5.94
						l-20.6-11.891c7.49,4.601,10.04,14.51,5.62,22.17c-4.311,7.471-13.75,10.25-21.39,6.471c-0.32-0.16-0.65-0.33-0.97-0.521
						L222.1,350.94l-10.02-5.79l-60.54-34.94l-11.55-19.62L183.97,214.43z" id="id_110"></path>
</g>
</g>
<g>
<g>
<path d="M215.664,382.207c-6.25,0.001-12.318-3.234-15.624-8.998c-2.002-3.446-2.701-7.332-2.245-11.061l-5.962,3.454
						c-8.617,4.904-19.619,1.927-24.549-6.627c-1.992-3.473-2.679-7.379-2.213-11.119l-2.044,1.179
						c-4.137,2.392-8.979,3.021-13.628,1.768c-4.634-1.249-8.499-4.209-10.883-8.333c-2.024-3.502-2.747-7.389-2.305-11.108
						l-4.664,2.709c-8.559,4.931-19.56,1.999-24.534-6.527c-2.42-4.227-3.04-9.115-1.76-13.79c1.262-4.611,4.228-8.44,8.351-10.781
						l21.571-12.513c0.034-0.02,0.069-0.039,0.104-0.058c1.117-0.6,2.486-0.578,3.572,0.074l0.95,0.57
						c1.703,1.022,2.255,3.231,1.233,4.935c-0.823,1.372-2.415,2.001-3.896,1.654l-19.954,11.576
						c-2.477,1.406-4.24,3.688-4.994,6.441c-0.771,2.816-0.398,5.761,1.05,8.291c2.921,5.007,9.662,6.807,14.704,3.9l16.809-9.764
						c1.701-0.988,3.875-0.428,4.888,1.255c1.013,1.684,0.488,3.868-1.178,4.907c-4.935,3.077-6.603,9.639-3.72,14.628
						c1.425,2.466,3.743,4.236,6.527,4.987c2.79,0.749,5.687,0.378,8.159-1.052l14.133-8.151c1.706-0.985,3.885-0.412,4.89,1.279
						c1.005,1.693,0.461,3.88-1.22,4.906c-4.925,3.006-6.591,9.533-3.713,14.551c2.956,5.128,9.567,6.914,14.73,3.974l18.066-10.467
						c1.707-0.986,3.888-0.419,4.895,1.273c1.007,1.694,0.464,3.883-1.218,4.909c-4.953,3.022-6.624,9.542-3.724,14.533
						c2.953,5.148,9.562,6.933,14.744,3.989l18.609-10.756c0.046-0.584,0.235-1.166,0.58-1.69c1.091-1.662,3.32-2.123,4.98-1.033
						c0.112,0.073,0.258,0.149,0.488,0.254c0.038,0.018,0.075,0.035,0.111,0.054l0.21,0.102c0.171,0.083,0.344,0.167,0.522,0.26
						c1.163,0.607,1.903,1.8,1.931,3.111c0.028,1.312-0.66,2.535-1.796,3.191l-22.06,12.75
						C221.769,381.446,218.694,382.207,215.664,382.207z" id="id_111"></path>
</g>
<g>
<path d="M151.543,313.808c-1.23,0-2.429-0.632-3.1-1.768l-9.423-15.945c-1.312,0.067-2.585-0.62-3.267-1.835
						c-0.972-1.732-0.355-3.925,1.377-4.896l1.64-0.92c1.705-0.957,3.862-0.376,4.856,1.307l11.01,18.63
						c1.011,1.71,0.444,3.916-1.266,4.927C152.796,313.646,152.166,313.808,151.543,313.808z" id="id_112"></path>
</g>
<g>
<path d="M251.386,368.935c-2.97,0-5.979-0.664-8.801-2.061c-0.411-0.205-0.819-0.418-1.215-0.653l-91.628-52.896
						c-0.538-0.311-0.986-0.755-1.302-1.291l-11.55-19.62c-0.657-1.115-0.663-2.497-0.017-3.619l10.73-18.63l46.062-79.705
						c0.855-1.479,2.633-2.153,4.253-1.612c1.621,0.542,2.637,2.148,2.431,3.845c-0.083,0.685-0.049,1.417,0.099,2.175
						c0.382,1.949-0.888,3.839-2.837,4.222c-0.223,0.044-0.445,0.066-0.664,0.068l-52.796,91.413l10.006,16.998l90.85,52.446
						c0.285,0.17,0.537,0.297,0.78,0.419c5.993,2.962,13.32,0.748,16.667-5.052c3.433-5.949,1.465-13.713-4.388-17.308
						c-1.676-1.029-2.214-3.215-1.208-4.905c1.006-1.689,3.186-2.256,4.888-1.274l20.6,11.891c2.938,1.712,6.359,2.17,9.648,1.298
						c3.298-0.876,6.05-2.979,7.75-5.922c3.425-5.963,1.467-13.734-4.368-17.315c-1.676-1.029-2.215-3.214-1.209-4.904
						c1.007-1.691,3.185-2.259,4.887-1.277l16.101,9.279c2.92,1.708,6.329,2.165,9.621,1.293c3.315-0.877,6.078-2.981,7.778-5.925
						c3.431-5.938,1.46-13.703-4.393-17.309c-1.676-1.033-2.21-3.221-1.199-4.909c1.011-1.689,3.192-2.251,4.893-1.264
						l19.141,11.119c6.099,3.462,13.936,1.355,17.438-4.708c1.096-1.909,1.678-4.101,1.678-6.331c0-1.897-0.417-3.769-1.211-5.463
						l-115.641-69.41c-1.732-0.971-2.35-3.163-1.378-4.896c0.971-1.732,3.162-2.35,4.896-1.378l0.25,0.14
						c0.031,0.017,0.063,0.035,0.093,0.053l116.36,69.85c0.537,0.323,0.98,0.78,1.287,1.327c1.66,2.967,2.538,6.348,2.538,9.777
						c0,3.485-0.912,6.916-2.638,9.921c-5.476,9.479-17.698,12.778-27.253,7.356l-6.299-3.658c0.781,4.47,0.075,9.213-2.333,13.38
						c-2.665,4.614-6.986,7.911-12.167,9.281c-5.155,1.365-10.51,0.644-15.074-2.026l-3.246-1.871
						c0.795,4.487,0.094,9.259-2.317,13.458c-2.669,4.619-6.977,7.914-12.137,9.284c-5.15,1.367-10.514,0.648-15.104-2.027
						l-7.727-4.46c0.792,4.482,0.089,9.243-2.326,13.43C265.021,365.329,258.308,368.935,251.386,368.935z" id="id_113"></path>
</g>
<g>
<path d="M202.6,208.396c-0.894,0-1.79-0.332-2.487-0.999c-0.259-0.249-0.508-0.497-0.756-0.745
						c-1.404-1.405-1.404-3.682,0-5.087c1.405-1.404,3.682-1.404,5.087,0c0.211,0.212,0.423,0.424,0.644,0.635
						c1.435,1.374,1.484,3.65,0.111,5.085C204.492,208.025,203.546,208.396,202.6,208.396z" id="id_114"></path>
</g>
<g>
<path d="M200.632,206.317c-1.024,0-2.042-0.435-2.753-1.279c-0.643-0.764-1.241-1.566-1.828-2.452
						c-1.097-1.656-0.644-3.888,1.013-4.984c1.655-1.098,3.888-0.644,4.984,1.013c0.433,0.653,0.869,1.238,1.333,1.789
						c1.28,1.52,1.085,3.789-0.434,5.068C202.272,206.04,201.45,206.317,200.632,206.317z" id="id_115"></path>
</g>
<g>
<path d="M199.043,204.177c-1.182,0-2.339-0.582-3.027-1.649c-1.307-2.028-2.188-4.126-2.62-6.237
						c-0.398-1.946,0.856-3.847,2.802-4.245c1.942-0.398,3.847,0.855,4.245,2.802c0.253,1.234,0.798,2.507,1.62,3.783
						c1.076,1.67,0.595,3.896-1.075,4.972C200.386,203.992,199.71,204.177,199.043,204.177z" id="id_116"></path>
</g>
<g>
<path d="M137.95,297.727c-0.625,0-1.246-0.163-1.797-0.481l-49.76-28.688c-0.827-0.477-1.43-1.263-1.677-2.184
						c-0.248-0.922-0.119-1.904,0.358-2.73l66.19-114.69c0.993-1.72,3.191-2.311,4.911-1.318l49.78,28.69
						c1.72,0.991,2.312,3.188,1.323,4.908l-3.58,6.23c-0.989,1.722-3.188,2.316-4.911,1.327c-1.722-0.99-2.316-3.188-1.327-4.911
						l1.791-3.115l-43.554-25.102L93.104,264.122l43.527,25.095l0.243-0.422l56.792-98.334c0.994-1.72,3.194-2.31,4.914-1.315
						c1.72,0.994,2.309,3.194,1.315,4.914l-58.828,101.868c-0.477,0.826-1.262,1.43-2.183,1.677
						C138.576,297.686,138.263,297.727,137.95,297.727z" id="id_117"></path>
</g>
<g>
<path d="M196.864,195.294c-0.213,0-0.428-0.019-0.645-0.058c-1.955-0.354-3.253-2.223-2.898-4.178
						c0.018-0.098,0.039-0.195,0.061-0.294c0.006-0.038,0.014-0.07,0.021-0.107c0.076-0.381,0.182-0.776,0.315-1.177
						c0.63-1.884,2.667-2.898,4.551-2.272c1.884,0.629,2.901,2.667,2.272,4.551c-0.03,0.09-0.058,0.183-0.079,0.276
						c-0.019,0.103-0.04,0.202-0.062,0.299C200.086,194.073,198.57,195.294,196.864,195.294z" id="id_118"></path>
</g>
<g>
<path d="M197.469,193.222c-0.453,0-0.912-0.087-1.354-0.271c-1.817-0.755-2.706-2.792-1.974-4.619
						c0.099-0.247,0.211-0.479,0.327-0.709c0.893-1.773,3.055-2.488,4.83-1.595c1.774,0.893,2.488,3.056,1.595,4.83
						c-0.026,0.051-0.053,0.103-0.077,0.157C200.226,192.382,198.878,193.222,197.469,193.222z" id="id_119"></path>
</g>
<g>
<path d="M197.708,192.778c-0.487,0-0.981-0.1-1.456-0.31c-1.816-0.805-2.636-2.93-1.831-4.746
						c0.132-0.299,0.277-0.565,0.443-0.814c1.099-1.654,3.333-2.104,4.986-1.004c1.603,1.065,2.075,3.194,1.102,4.831
						C200.339,192.019,199.053,192.778,197.708,192.778z" id="id_120"></path>
</g>
<g>
<path d="M198.097,192.077c-0.591,0-1.19-0.146-1.743-0.453c-1.736-0.965-2.362-3.154-1.397-4.891
						c0.167-0.3,0.363-0.602,0.58-0.902c1.165-1.609,3.414-1.969,5.022-0.806c1.609,1.165,1.97,3.413,0.806,5.022
						c-0.043,0.06-0.086,0.118-0.12,0.178C200.587,191.41,199.361,192.077,198.097,192.077z" id="id_121"></path>
</g>
<g>
<path d="M198.465,191.481c-0.661,0-1.328-0.182-1.922-0.564c-1.66-1.067-2.167-3.244-1.116-4.914
						c0.233-0.37,0.479-0.681,0.655-0.893c0.198-0.25,0.419-0.501,0.655-0.751c1.365-1.444,3.642-1.507,5.084-0.142
						c1.443,1.365,1.507,3.641,0.142,5.084c-0.088,0.093-0.172,0.184-0.245,0.277c-0.025,0.033-0.051,0.064-0.077,0.096
						c-0.045,0.055-0.092,0.107-0.129,0.165C200.817,190.897,199.65,191.481,198.465,191.481z" id="id_122"></path>
</g>
<g>
<path d="M199.409,190.356c-0.878,0-1.758-0.319-2.451-0.965c-1.454-1.354-1.534-3.63-0.18-5.083
						c0.191-0.205,0.398-0.419,0.614-0.616c0.222-0.217,0.444-0.414,0.679-0.61c1.523-1.274,3.792-1.073,5.067,0.45
						c1.275,1.523,1.073,3.792-0.45,5.067c-0.098,0.082-0.192,0.163-0.285,0.255c-0.055,0.055-0.112,0.108-0.171,0.16
						c-0.067,0.061-0.129,0.133-0.19,0.198C201.333,189.972,200.373,190.356,199.409,190.356z" id="id_123"></path>
</g>
<g>
<path d="M126.422,267.872C126.422,267.872,126.422,267.872,126.422,267.872c-2.242,0-4.462-0.597-6.42-1.727
						c-2.966-1.719-5.077-4.477-5.95-7.77c-0.873-3.29-0.409-6.73,1.306-9.689c2.249-3.935,6.508-6.39,11.103-6.39
						c2.211,0,4.395,0.576,6.314,1.666c6.103,3.545,8.207,11.396,4.72,17.519C135.189,265.436,130.953,267.872,126.422,267.872z
						 M126.461,249.49c-2.021,0-3.886,1.067-4.868,2.786c-0.763,1.317-0.968,2.822-0.587,4.256c0.38,1.433,1.303,2.636,2.598,3.386
						c0.86,0.497,1.837,0.761,2.819,0.761l0,0c2.012,0,3.822-1.043,4.841-2.79c1.522-2.673,0.602-6.137-2.07-7.689
						C128.385,249.742,127.43,249.49,126.461,249.49z" id="id_124"></path>
</g>
<g>
<path d="M420.083,261.458c-1.242,0-2.451-0.646-3.117-1.799l-54.691-94.721c-0.829-1.437-0.568-3.255,0.632-4.4
						c0.207-0.198,0.448-0.38,0.696-0.523l51.529-29.74c1.719-0.992,3.919-0.403,4.912,1.316l54.69,94.71
						c0.478,0.826,0.606,1.808,0.36,2.729c-0.247,0.921-0.85,1.707-1.676,2.184l-51.54,29.76
						C421.313,261.302,420.693,261.458,420.083,261.458z M370.302,164.454l51.095,88.493l45.311-26.164l-51.094-88.481
						L370.302,164.454z" id="id_125"></path>
</g>
<g>
<path d="M371.629,292.486c-0.636,0-1.275-0.168-1.85-0.513l-115.753-69.475c-0.014,0-0.028,0-0.041,0
						c-19.743,0-39.822-1.946-53.843-15.073c-0.308-0.294-0.585-0.562-0.84-0.828c-0.544-0.543-1.018-1.061-1.437-1.575
						c-0.692-0.811-1.296-1.625-1.847-2.485l0.001-0.001c-0.017-0.025-0.032-0.05-0.048-0.076c-1.259-1.954-2.114-3.975-2.544-6.01
						c-0.031-0.125-0.056-0.251-0.074-0.377c-0.268-1.408-0.32-2.805-0.156-4.16c0.028-0.354,0.082-0.658,0.126-0.879
						c0.029-0.168,0.061-0.328,0.1-0.485c0.068-0.321,0.158-0.653,0.267-0.988c0.133-0.455,0.304-0.916,0.51-1.372
						c0.059-0.139,0.159-0.354,0.26-0.557c0.071-0.151,0.151-0.304,0.244-0.466c0.111-0.212,0.233-0.423,0.37-0.635
						c0.083-0.139,0.226-0.355,0.37-0.57c0.057-0.085,0.117-0.168,0.181-0.248c0.133-0.182,0.273-0.371,0.413-0.55
						c0.024-0.032,0.049-0.063,0.075-0.093c0.169-0.203,0.348-0.406,0.528-0.608c0.072-0.085,0.155-0.176,0.224-0.245l0.45-0.45
						c0.025-0.025,0.051-0.05,0.077-0.074c0.196-0.185,0.394-0.369,0.599-0.544c0.083-0.075,0.169-0.147,0.259-0.22
						c8.048-6.666,24.203-7.736,45.522-3.041c5.772,1.283,10.996-0.864,17.047-3.35c11.017-4.527,24.658-10.134,44.431,6.891
						l5.522-1.628c1.54-0.455,3.287,0.222,4.113,1.604l1.101,1.84l13.83,24.022c0.159,0.277,0.278,0.566,0.357,0.861
						c0.213,0.215,0.401,0.46,0.56,0.735l44.011,76.23c0.819,1.42,0.575,3.214-0.594,4.363
						C373.46,292.134,372.549,292.486,371.629,292.486z M255.02,215.303c0.652,0,1.292,0.177,1.851,0.513l104.703,62.843
						l-37.068-64.201c-0.161-0.278-0.28-0.569-0.36-0.865c-0.214-0.216-0.403-0.463-0.563-0.739l-13.452-23.366l-4.754,1.401
						c-1.199,0.355-2.503,0.057-3.431-0.784c-17.234-15.609-27.511-11.386-38.392-6.916c-6.572,2.7-13.366,5.494-21.336,3.72
						c-26.735-5.888-36.42-0.893-39.344,1.529c-0.008,0.007-0.048,0.04-0.079,0.064c-0.035,0.032-0.071,0.063-0.107,0.094
						c-0.112,0.093-0.217,0.193-0.322,0.292l-0.323,0.323c-0.003,0.003-0.006,0.007-0.009,0.01l0,0
						c-0.119,0.134-0.239,0.268-0.352,0.402c-0.102,0.133-0.203,0.271-0.298,0.402c-0.013,0.018-0.025,0.035-0.038,0.052
						c-0.063,0.095-0.122,0.184-0.176,0.274c-0.038,0.076-0.164,0.292-0.218,0.382c-0.003,0.007-0.007,0.015-0.011,0.022
						c-0.006,0.014-0.043,0.087-0.05,0.101c-0.038,0.074-0.075,0.154-0.107,0.229c-0.099,0.22-0.156,0.374-0.194,0.509
						c-0.016,0.055-0.032,0.109-0.05,0.164c-0.033,0.098-0.063,0.2-0.084,0.303c-0.017,0.083-0.036,0.167-0.059,0.249
						c-0.009,0.05-0.009,0.081-0.02,0.13c-0.005,0.091-0.021,0.193-0.033,0.283c-0.087,0.666-0.054,1.376,0.097,2.112
						c0.008,0.04,0.016,0.081,0.022,0.121c0.251,1.195,0.786,2.426,1.589,3.661c0.028,0.043,0.056,0.087,0.082,0.131
						c0.362,0.557,0.763,1.091,1.225,1.63c0.022,0.026,0.044,0.052,0.065,0.079c0.26,0.322,0.593,0.684,1.017,1.108
						c0.24,0.25,0.442,0.442,0.644,0.635c12.408,11.616,31.349,13.144,49.92,13.102C255.012,215.303,255.016,215.303,255.02,215.303
						z" id="id_126"></path>
</g>
<g>
<path d="M377.223,302.117c-1.242,0-2.451-0.646-3.117-1.799L307.896,185.7c-0.478-0.826-0.606-1.808-0.36-2.729
						c0.247-0.921,0.85-1.708,1.676-2.185l49.78-28.76c0.826-0.477,1.81-0.606,2.729-0.36c0.922,0.247,1.708,0.85,2.185,1.676
						l66.19,114.69c0.477,0.826,0.605,1.809,0.358,2.729c-0.247,0.922-0.851,1.708-1.677,2.185l-49.761,28.689
						C378.45,301.962,377.833,302.117,377.223,302.117z M315.924,185.215l62.612,108.394l43.53-25.097l-62.593-108.457
						L315.924,185.215z" id="id_127"></path>
</g>
<g>
<path d="M391.114,271.392c-3.431,0-6.648-1.343-9.062-3.782c-2.392-2.365-3.725-5.563-3.725-8.979
						c0-3.4,1.323-6.61,3.725-9.039c2.416-2.436,5.633-3.775,9.062-3.775c3.431,0,6.646,1.341,9.054,3.776
						c2.401,2.428,3.725,5.639,3.725,9.039c0,3.416-1.333,6.614-3.753,9.008C397.763,270.047,394.547,271.392,391.114,271.392z
						 M391.114,253.009c-1.496,0-2.899,0.583-3.95,1.644c-1.058,1.069-1.642,2.483-1.642,3.977c0,1.479,0.574,2.861,1.617,3.893
						c1.079,1.091,2.48,1.676,3.975,1.676c1.492,0,2.89-0.584,3.936-1.644c1.074-1.063,1.648-2.445,1.648-3.925
						c0-1.494-0.584-2.908-1.646-3.98C394.007,253.591,392.608,253.009,391.114,253.009z" id="id_128"></path>
</g>
<g>
<path d="M91.9,261.457c-0.626,0-1.247-0.163-1.799-0.482l-51.52-29.76c-1.72-0.993-2.309-3.192-1.316-4.913l54.68-94.71
						c0.477-0.826,1.263-1.429,2.184-1.676c0.921-0.247,1.904-0.118,2.73,0.36l51.5,29.75c1.719,0.993,2.309,3.192,1.316,4.912
						l-54.66,94.72c-0.477,0.826-1.263,1.43-2.185,1.677C92.524,261.417,92.211,261.457,91.9,261.457z M45.292,226.784
						l45.291,26.162l51.065-88.49l-45.272-26.152L45.292,226.784z" id="id_129"></path>
</g>
<g>
<path d="M311.339,172.407c-0.862,0-1.727-0.308-2.416-0.933c-17.215-15.619-27.509-11.377-38.404-6.885
						c-6.566,2.707-13.358,5.504-21.308,3.765c-26.186-5.831-36.094-1.057-39.14,1.266c-1.579,1.204-3.835,0.901-5.041-0.679
						c-1.205-1.58-0.901-3.836,0.679-5.041c8.247-6.291,24.246-7.203,45.053-2.571c5.74,1.257,10.965-0.897,17.016-3.391
						c11.313-4.664,25.395-10.467,45.979,8.208c1.471,1.334,1.581,3.609,0.247,5.081
						C313.294,172.009,312.318,172.407,311.339,172.407z" id="id_130"></path>
</g>
</g>
</g>
</g>
</g>
<g id="Layer_1">
</g>
</svg>