<svg width="512" height="512" viewBox="0 0 512 512" fill="none" xmlns="http://www.w3.org/2000/svg">
<path d="M392 167.852H119.853C106.598 167.852 95.853 178.597 95.853 191.852V463.999C95.853 477.253 106.598 487.999 119.853 487.999H392C405.255 487.999 416 477.253 416 463.999V191.852C416 178.597 405.255 167.852 392 167.852Z" fill="#00aed1" id="id_101"></path>
<path d="M384 200H128V456H384V200Z" fill="#00a6c7" id="id_102"></path>
<path d="M256 424C304.601 424 344 384.601 344 336C344 287.399 304.601 248 256 248C207.399 248 168 287.399 168 336C168 384.601 207.399 424 256 424Z" fill="#02A437" id="id_103"></path>
<path d="M280 322C277.878 322 275.843 321.157 274.343 319.657C272.843 318.157 272 316.122 272 314V297.927C272 293.703 270.322 289.652 267.335 286.665C264.348 283.678 260.297 282 256.073 282C251.849 282 247.798 283.678 244.811 286.665C241.824 289.652 240.146 293.703 240.146 297.927V314C240.146 316.122 239.303 318.157 237.803 319.657C236.303 321.157 234.268 322 232.146 322C230.024 322 227.989 321.157 226.489 319.657C224.989 318.157 224.146 316.122 224.146 314V297.927C224.146 289.459 227.51 281.339 233.497 275.351C239.485 269.364 247.605 266 256.073 266C264.541 266 272.661 269.364 278.649 275.351C284.636 281.339 288 289.459 288 297.927V314C288 316.122 287.157 318.157 285.657 319.657C284.157 321.157 282.122 322 280 322Z" fill="#EA9D2D" id="id_104"></path>
<path d="M384 248H360V280H384V248Z" fill="#009CF7" id="id_105"></path>
<path d="M384 376H360V408H384V376Z" fill="#009CF7" id="id_106"></path>
<path d="M198 24H314C317.713 24 321.274 25.475 323.9 28.1005C326.525 30.726 328 34.287 328 38V168H184V38C184 34.287 185.475 30.726 188.101 28.1005C190.726 25.475 194.287 24 198 24V24Z" fill="#79A73A" id="id_107"></path>
<path d="M296 168H216V80C222.365 80 228.47 77.4714 232.971 72.9706C237.471 68.4697 240 62.3652 240 56H272C272 62.3652 274.529 68.4697 279.029 72.9706C283.53 77.4714 289.635 80 296 80V80V168Z" fill="#89B140" id="id_108"></path>
<path d="M216 168C216 157.391 220.214 147.217 227.716 139.716C235.217 132.214 245.391 128 256 128C266.609 128 276.783 132.214 284.284 139.716C291.786 147.217 296 157.391 296 168H216Z" fill="#FBB540" id="id_109"></path>
<path d="M256 108C261.523 108 266 103.523 266 98C266 92.4772 261.523 88 256 88C250.477 88 246 92.4772 246 98C246 103.523 250.477 108 256 108Z" fill="#79A73A" id="id_110"></path>
<path d="M256 408.002C254.949 408.003 253.908 407.796 252.937 407.394C251.966 406.992 251.084 406.402 250.341 405.659L242.341 397.659C240.841 396.158 239.998 394.123 239.998 392.002C239.998 389.88 240.841 387.845 242.341 386.345C243.842 384.844 245.876 384.001 247.998 384.001C250.12 384.001 252.155 384.844 253.655 386.345L256.592 389.282L271 377.755C272.657 376.428 274.773 375.815 276.882 376.049C278.991 376.283 280.921 377.345 282.247 379.002C283.573 380.658 284.187 382.774 283.953 384.883C283.719 386.993 282.657 388.923 281 390.249L261 406.249C259.582 407.385 257.818 408.004 256 408.002Z" fill="#027E2A" id="id_111"></path>
<path d="M288 313.852H280V362.002H288V313.852Z" fill="#FBB540" id="id_112"></path>
<path d="M240 304H224V320H240V304Z" fill="#D18D28" id="id_113"></path>
<path d="M288 304H272V320H288V304Z" fill="#D18D28" id="id_114"></path>
<path d="M288 313.852H224V361.999H288V313.852Z" fill="#FBB540" id="id_115"></path>
<path d="M288 313.852H280V362.002H288V313.852Z" fill="#FFC864" id="id_116"></path>
<path d="M288 305.854V297.927C288 289.459 284.636 281.339 278.649 275.351C272.661 269.364 264.541 266 256.073 266C247.605 266 239.485 269.364 233.497 275.351C227.51 281.339 224.146 289.459 224.146 297.927V305.854H224C221.878 305.854 219.843 306.697 218.343 308.197C216.843 309.697 216 311.732 216 313.854V362C216 364.122 216.843 366.157 218.343 367.657C219.843 369.157 221.878 370 224 370H288C290.122 370 292.157 369.157 293.657 367.657C295.157 366.157 296 364.122 296 362V313.854C296 311.732 295.157 309.697 293.657 308.197C292.157 306.697 290.122 305.854 288 305.854ZM240.146 297.927C240.146 293.703 241.824 289.652 244.811 286.665C247.798 283.678 251.849 282 256.073 282C260.297 282 264.348 283.678 267.335 286.665C270.322 289.652 272 293.703 272 297.927V305.854H240.146V297.927ZM280 354H232V321.993C232.049 321.993 232.1 322 232.146 322C232.652 321.999 233.157 321.95 233.654 321.854H278.493C278.99 321.95 279.494 321.999 280 322V354Z" fill="black" id="id_117"></path>
<path d="M256 240C237.013 240 218.452 245.63 202.665 256.179C186.878 266.728 174.574 281.721 167.308 299.262C160.042 316.804 158.14 336.106 161.845 354.729C165.549 373.351 174.692 390.456 188.118 403.882C201.544 417.308 218.649 426.451 237.271 430.155C255.894 433.86 275.196 431.958 292.738 424.692C310.279 417.426 325.272 405.122 335.821 389.335C346.37 373.548 352 354.987 352 336C351.971 310.548 341.848 286.147 323.851 268.149C305.853 250.152 281.452 240.029 256 240V240ZM256 416C240.178 416 224.71 411.308 211.554 402.518C198.398 393.727 188.145 381.233 182.09 366.615C176.035 351.997 174.45 335.911 177.537 320.393C180.624 304.874 188.243 290.62 199.431 279.431C210.62 268.243 224.874 260.624 240.393 257.537C255.911 254.45 271.997 256.035 286.615 262.09C301.233 268.145 313.727 278.398 322.518 291.554C331.308 304.71 336 320.177 336 336C335.976 357.21 327.54 377.544 312.542 392.542C297.544 407.54 277.21 415.976 256 416V416Z" fill="black" id="id_118"></path>
<path d="M128 192C125.878 192 123.843 192.843 122.343 194.343C120.843 195.843 120 197.878 120 200V456C120 458.122 120.843 460.157 122.343 461.657C123.843 463.157 125.878 464 128 464H384C386.122 464 388.157 463.157 389.657 461.657C391.157 460.157 392 458.122 392 456V200C392 197.878 391.157 195.843 389.657 194.343C388.157 192.843 386.122 192 384 192H128ZM376 272H368V256H376V272ZM136 448V208H376V240H360C357.878 240 355.843 240.843 354.343 242.343C352.843 243.843 352 245.878 352 248V280C352 282.122 352.843 284.157 354.343 285.657C355.843 287.157 357.878 288 360 288H376V368H360C357.878 368 355.843 368.843 354.343 370.343C352.843 371.843 352 373.878 352 376V408C352 410.122 352.843 412.157 354.343 413.657C355.843 415.157 357.878 416 360 416H376V448H136ZM376 400H368V384H376V400Z" fill="black" id="id_119"></path>
<path d="M314 16H198C192.167 16.0066 186.575 18.3266 182.451 22.451C178.327 26.5753 176.007 32.1673 176 38V159.854H119.854C111.37 159.863 103.236 163.238 97.2368 169.237C91.2377 175.236 87.8633 183.37 87.854 191.854V464C87.8633 472.484 91.2377 480.618 97.2368 486.617C103.236 492.616 111.37 495.991 119.854 496H392C400.484 495.99 408.618 492.616 414.617 486.617C420.616 480.618 423.99 472.484 424 464V191.854C423.991 183.37 420.616 175.236 414.617 169.237C408.618 163.238 400.484 159.863 392 159.854H336V38C335.993 32.1673 333.673 26.5753 329.549 22.451C325.425 18.3266 319.833 16.0066 314 16V16ZM192 38C192.002 36.4092 192.634 34.884 193.759 33.7591C194.884 32.6342 196.409 32.0016 198 32H314C315.591 32.0016 317.116 32.6342 318.241 33.7591C319.366 34.884 319.998 36.4092 320 38V159.854H304V80C304 77.8783 303.157 75.8434 301.657 74.3431C300.157 72.8429 298.122 72 296 72C291.758 71.995 287.691 70.3076 284.692 67.3082C281.692 64.3087 280.005 60.2419 280 56C280 53.8783 279.157 51.8434 277.657 50.3431C276.157 48.8429 274.122 48 272 48H240C237.878 48 235.843 48.8429 234.343 50.3431C232.843 51.8434 232 53.8783 232 56C231.995 60.2419 230.308 64.3087 227.308 67.3082C224.309 70.3076 220.242 71.995 216 72C213.878 72 211.843 72.8429 210.343 74.3431C208.843 75.8434 208 77.8783 208 80V159.854H192V38ZM225.053 159.854C226.852 153.017 230.863 146.969 236.462 142.653C242.061 138.336 248.931 135.995 256 135.995C263.069 135.995 269.939 138.336 275.538 142.653C281.137 146.969 285.148 153.017 286.947 159.854H225.053ZM288 132.261C279.211 124.367 267.814 120 256 120C244.186 120 232.789 124.367 224 132.261V86.988C229.53 85.5476 234.576 82.6579 238.617 78.617C242.658 74.5761 245.548 69.5302 246.988 64H265.012C266.452 69.5302 269.342 74.5761 273.383 78.617C277.424 82.6579 282.47 85.5476 288 86.988V132.261ZM408 191.854V464C407.995 468.242 406.308 472.309 403.308 475.308C400.309 478.308 396.242 479.995 392 480H119.854C115.612 479.995 111.545 478.308 108.546 475.308C105.546 472.309 103.859 468.242 103.854 464V191.854C103.859 187.612 105.546 183.545 108.545 180.545C111.545 177.546 115.612 175.859 119.854 175.854H392C396.242 175.859 400.309 177.546 403.308 180.546C406.308 183.545 407.995 187.612 408 191.854V191.854Z" fill="black" id="id_120"></path>
<path d="M256 108C261.523 108 266 103.523 266 98C266 92.4772 261.523 88 256 88C250.477 88 246 92.4772 246 98C246 103.523 250.477 108 256 108Z" fill="black" id="id_121"></path>
<path d="M271 377.755L256.594 389.282L253.657 386.345C252.157 384.844 250.122 384.001 248 384.001C245.878 384.001 243.844 384.844 242.343 386.345C240.843 387.845 240 389.88 240 392.002C240 394.123 240.843 396.158 242.343 397.659L250.343 405.659C251.735 407.051 253.592 407.881 255.558 407.99C257.524 408.099 259.461 407.479 260.998 406.249L280.998 390.249C282.655 388.923 283.717 386.993 283.951 384.883C284.185 382.774 283.571 380.658 282.245 379.002C280.919 377.345 278.989 376.283 276.88 376.049C274.771 375.815 272.655 376.428 270.998 377.755H271Z" fill="black" id="id_122"></path>
</svg>